<svg id="visual" viewBox="0 0 450 900" width="450" height="900" xmlns="http://www.w3.org/2000/svg" xmlns:xlink="http://www.w3.org/1999/xlink" version="1.1"><rect x="0" y="0" width="450" height="900" fill="#0066FF"></rect><path d="M0 850L20 850L20 539L39 539L39 614L59 614L59 821L78 821L78 782L98 782L98 665L117 665L117 528L137 528L137 821L157 821L157 516L176 516L176 566L196 566L196 887L215 887L215 512L235 512L235 691L254 691L254 629L274 629L274 670L293 670L293 575L313 575L313 522L333 522L333 455L352 455L352 463L372 463L372 542L391 542L391 766L411 766L411 739L430 739L430 480L450 480L450 876L450 901L450 901L430 901L430 901L411 901L411 901L391 901L391 901L372 901L372 901L352 901L352 901L333 901L333 901L313 901L313 901L293 901L293 901L274 901L274 901L254 901L254 901L235 901L235 901L215 901L215 901L196 901L196 901L176 901L176 901L157 901L157 901L137 901L137 901L117 901L117 901L98 901L98 901L78 901L78 901L59 901L59 901L39 901L39 901L20 901L20 901L0 901Z" fill="#101a28"></path><path d="M0 608L20 608L20 671L39 671L39 556L59 556L59 650L78 650L78 505L98 505L98 857L117 857L117 871L137 871L137 567L157 567L157 729L176 729L176 636L196 636L196 714L215 714L215 773L235 773L235 799L254 799L254 526L274 526L274 795L293 795L293 798L313 798L313 571L333 571L333 717L352 717L352 857L372 857L372 759L391 759L391 693L411 693L411 745L430 745L430 625L450 625L450 694L450 901L450 901L430 901L430 901L411 901L411 901L391 901L391 901L372 901L372 901L352 901L352 901L333 901L333 901L313 901L313 901L293 901L293 901L274 901L274 901L254 901L254 901L235 901L235 901L215 901L215 901L196 901L196 901L176 901L176 901L157 901L157 901L137 901L137 901L117 901L117 901L98 901L98 901L78 901L78 901L59 901L59 901L39 901L39 901L20 901L20 901L0 901Z" fill="#152438"></path><path d="M0 775L20 775L20 851L39 851L39 624L59 624L59 649L78 649L78 873L98 873L98 888L117 888L117 782L137 782L137 656L157 656L157 625L176 625L176 828L196 828L196 748L215 748L215 652L235 652L235 797L254 797L254 881L274 881L274 792L293 792L293 867L313 867L313 723L333 723L333 870L352 870L352 798L372 798L372 771L391 771L391 636L411 636L411 625L430 625L430 733L450 733L450 763L450 901L450 901L430 901L430 901L411 901L411 901L391 901L391 901L372 901L372 901L352 901L352 901L333 901L333 901L313 901L313 901L293 901L293 901L274 901L274 901L254 901L254 901L235 901L235 901L215 901L215 901L196 901L196 901L176 901L176 901L157 901L157 901L137 901L137 901L117 901L117 901L98 901L98 901L78 901L78 901L59 901L59 901L39 901L39 901L20 901L20 901L0 901Z" fill="#1b2f49"></path><path d="M0 555L20 555L20 712L39 712L39 876L59 876L59 753L78 753L78 617L98 617L98 788L117 788L117 809L137 809L137 862L157 862L157 614L176 614L176 750L196 750L196 887L215 887L215 587L235 587L235 869L254 869L254 688L274 688L274 829L293 829L293 823L313 823L313 707L333 707L333 828L352 828L352 804L372 804L372 860L391 860L391 562L411 562L411 896L430 896L430 836L450 836L450 717L450 901L450 901L430 901L430 901L411 901L411 901L391 901L391 901L372 901L372 901L352 901L352 901L333 901L333 901L313 901L313 901L293 901L293 901L274 901L274 901L254 901L254 901L235 901L235 901L215 901L215 901L196 901L196 901L176 901L176 901L157 901L157 901L137 901L137 901L117 901L117 901L98 901L98 901L78 901L78 901L59 901L59 901L39 901L39 901L20 901L20 901L0 901Z" fill="#213a5a"></path><path d="M0 654L20 654L20 849L39 849L39 705L59 705L59 771L78 771L78 853L98 853L98 676L117 676L117 607L137 607L137 665L157 665L157 665L176 665L176 671L196 671L196 837L215 837L215 663L235 663L235 762L254 762L254 839L274 839L274 598L293 598L293 794L313 794L313 796L333 796L333 763L352 763L352 868L372 868L372 782L391 782L391 841L411 841L411 877L430 877L430 735L450 735L450 612L450 901L450 901L430 901L430 901L411 901L411 901L391 901L391 901L372 901L372 901L352 901L352 901L333 901L333 901L313 901L313 901L293 901L293 901L274 901L274 901L254 901L254 901L235 901L235 901L215 901L215 901L196 901L196 901L176 901L176 901L157 901L157 901L137 901L137 901L117 901L117 901L98 901L98 901L78 901L78 901L59 901L59 901L39 901L39 901L20 901L20 901L0 901Z" fill="#26456c"></path><path d="M0 855L20 855L20 753L39 753L39 651L59 651L59 816L78 816L78 816L98 816L98 783L117 783L117 658L137 658L137 701L157 701L157 686L176 686L176 763L196 763L196 689L215 689L215 800L235 800L235 627L254 627L254 647L274 647L274 854L293 854L293 771L313 771L313 843L333 843L333 654L352 654L352 717L372 717L372 732L391 732L391 775L411 775L411 682L430 682L430 718L450 718L450 894L450 901L450 901L430 901L430 901L411 901L411 901L391 901L391 901L372 901L372 901L352 901L352 901L333 901L333 901L313 901L313 901L293 901L293 901L274 901L274 901L254 901L254 901L235 901L235 901L215 901L215 901L196 901L196 901L176 901L176 901L157 901L157 901L137 901L137 901L117 901L117 901L98 901L98 901L78 901L78 901L59 901L59 901L39 901L39 901L20 901L20 901L0 901Z" fill="#2d507f"></path><path d="M0 715L20 715L20 857L39 857L39 728L59 728L59 694L78 694L78 839L98 839L98 690L117 690L117 891L137 891L137 787L157 787L157 787L176 787L176 699L196 699L196 675L215 675L215 690L235 690L235 732L254 732L254 815L274 815L274 693L293 693L293 737L313 737L313 715L333 715L333 847L352 847L352 810L372 810L372 683L391 683L391 735L411 735L411 737L430 737L430 843L450 843L450 785L450 901L450 901L430 901L430 901L411 901L411 901L391 901L391 901L372 901L372 901L352 901L352 901L333 901L333 901L313 901L313 901L293 901L293 901L274 901L274 901L254 901L254 901L235 901L235 901L215 901L215 901L196 901L196 901L176 901L176 901L157 901L157 901L137 901L137 901L117 901L117 901L98 901L98 901L78 901L78 901L59 901L59 901L39 901L39 901L20 901L20 901L0 901Z" fill="#335c92"></path><path d="M0 770L20 770L20 693L39 693L39 776L59 776L59 737L78 737L78 789L98 789L98 861L117 861L117 806L137 806L137 779L157 779L157 858L176 858L176 836L196 836L196 761L215 761L215 840L235 840L235 732L254 732L254 784L274 784L274 698L293 698L293 732L313 732L313 709L333 709L333 742L352 742L352 871L372 871L372 707L391 707L391 738L411 738L411 808L430 808L430 881L450 881L450 721L450 901L450 901L430 901L430 901L411 901L411 901L391 901L391 901L372 901L372 901L352 901L352 901L333 901L333 901L313 901L313 901L293 901L293 901L274 901L274 901L254 901L254 901L235 901L235 901L215 901L215 901L196 901L196 901L176 901L176 901L157 901L157 901L137 901L137 901L117 901L117 901L98 901L98 901L78 901L78 901L59 901L59 901L39 901L39 901L20 901L20 901L0 901Z" fill="#3a68a5"></path><path d="M0 782L20 782L20 772L39 772L39 753L59 753L59 875L78 875L78 742L98 742L98 769L117 769L117 742L137 742L137 872L157 872L157 765L176 765L176 805L196 805L196 844L215 844L215 780L235 780L235 869L254 869L254 854L274 854L274 766L293 766L293 891L313 891L313 835L333 835L333 896L352 896L352 837L372 837L372 832L391 832L391 858L411 858L411 790L430 790L430 869L450 869L450 794L450 901L450 901L430 901L430 901L411 901L411 901L391 901L391 901L372 901L372 901L352 901L352 901L333 901L333 901L313 901L313 901L293 901L293 901L274 901L274 901L254 901L254 901L235 901L235 901L215 901L215 901L196 901L196 901L176 901L176 901L157 901L157 901L137 901L137 901L117 901L117 901L98 901L98 901L78 901L78 901L59 901L59 901L39 901L39 901L20 901L20 901L0 901Z" fill="#4274b9"></path><path d="M0 840L20 840L20 776L39 776L39 779L59 779L59 793L78 793L78 829L98 829L98 875L117 875L117 886L137 886L137 893L157 893L157 833L176 833L176 844L196 844L196 821L215 821L215 822L235 822L235 873L254 873L254 782L274 782L274 860L293 860L293 838L313 838L313 772L333 772L333 842L352 842L352 823L372 823L372 797L391 797L391 814L411 814L411 873L430 873L430 824L450 824L450 802L450 901L450 901L430 901L430 901L411 901L411 901L391 901L391 901L372 901L372 901L352 901L352 901L333 901L333 901L313 901L313 901L293 901L293 901L274 901L274 901L254 901L254 901L235 901L235 901L215 901L215 901L196 901L196 901L176 901L176 901L157 901L157 901L137 901L137 901L117 901L117 901L98 901L98 901L78 901L78 901L59 901L59 901L39 901L39 901L20 901L20 901L0 901Z" fill="#4a81cd"></path><path d="M0 814L20 814L20 888L39 888L39 849L59 849L59 893L78 893L78 874L98 874L98 815L117 815L117 798L137 798L137 871L157 871L157 884L176 884L176 816L196 816L196 867L215 867L215 881L235 881L235 874L254 874L254 841L274 841L274 834L293 834L293 876L313 876L313 869L333 869L333 799L352 799L352 854L372 854L372 860L391 860L391 824L411 824L411 896L430 896L430 800L450 800L450 866L450 901L450 901L430 901L430 901L411 901L411 901L391 901L391 901L372 901L372 901L352 901L352 901L333 901L333 901L313 901L313 901L293 901L293 901L274 901L274 901L254 901L254 901L235 901L235 901L215 901L215 901L196 901L196 901L176 901L176 901L157 901L157 901L137 901L137 901L117 901L117 901L98 901L98 901L78 901L78 901L59 901L59 901L39 901L39 901L20 901L20 901L0 901Z" fill="#528de2"></path><path d="M0 895L20 895L20 874L39 874L39 837L59 837L59 843L78 843L78 855L98 855L98 867L117 867L117 854L137 854L137 895L157 895L157 877L176 877L176 837L196 837L196 848L215 848L215 895L235 895L235 874L254 874L254 898L274 898L274 843L293 843L293 876L313 876L313 892L333 892L333 849L352 849L352 845L372 845L372 845L391 845L391 873L411 873L411 890L430 890L430 875L450 875L450 878L450 901L450 901L430 901L430 901L411 901L411 901L391 901L391 901L372 901L372 901L352 901L352 901L333 901L333 901L313 901L313 901L293 901L293 901L274 901L274 901L254 901L254 901L235 901L235 901L215 901L215 901L196 901L196 901L176 901L176 901L157 901L157 901L137 901L137 901L117 901L117 901L98 901L98 901L78 901L78 901L59 901L59 901L39 901L39 901L20 901L20 901L0 901Z" fill="#5b9af7"></path></svg>