<svg id="visual" viewBox="0 0 900 900" width="900" height="900" xmlns="http://www.w3.org/2000/svg" xmlns:xlink="http://www.w3.org/1999/xlink" version="1.1"><g stroke-width="1" stroke-linejoin="bevel"><path d="M467 445L556 517L542 453Z" fill="#1b2a36" stroke="#1b2a36"></path><path d="M467 445L447 554L556 517Z" fill="#79929e" stroke="#79929e"></path><path d="M447 554L525 607L556 517Z" fill="#79929e" stroke="#79929e"></path><path d="M621 537L622 473L556 517Z" fill="#79929e" stroke="#79929e"></path><path d="M556 517L622 473L542 453Z" fill="#1b2a36" stroke="#1b2a36"></path><path d="M525 607L621 537L556 517Z" fill="#6b828e" stroke="#6b828e"></path><path d="M549 355L448 369L467 445Z" fill="#4f636f" stroke="#4f636f"></path><path d="M467 445L339 542L447 554Z" fill="#79929e" stroke="#79929e"></path><path d="M549 355L467 445L542 453Z" fill="#344652" stroke="#344652"></path><path d="M622 473L549 355L542 453Z" fill="#344652" stroke="#344652"></path><path d="M447 554L455 646L525 607Z" fill="#1b2a36" stroke="#1b2a36"></path><path d="M338 426L339 542L467 445Z" fill="#273843" stroke="#273843"></path><path d="M447 554L341 652L455 646Z" fill="#00101c" stroke="#00101c"></path><path d="M525 607L626 618L621 537Z" fill="#79929e" stroke="#79929e"></path><path d="M708 366L653 353L622 473Z" fill="#00101c" stroke="#00101c"></path><path d="M621 713L626 618L525 607Z" fill="#4f636f" stroke="#4f636f"></path><path d="M448 369L338 426L467 445Z" fill="#6b828e" stroke="#6b828e"></path><path d="M459 282L376 348L448 369Z" fill="#273843" stroke="#273843"></path><path d="M448 369L376 348L338 426Z" fill="#4f636f" stroke="#4f636f"></path><path d="M737 466L622 473L741 539Z" fill="#415460" stroke="#415460"></path><path d="M622 473L653 353L549 355Z" fill="#5c727e" stroke="#5c727e"></path><path d="M549 355L459 282L448 369Z" fill="#88a2ae" stroke="#88a2ae"></path><path d="M338 426L290 523L339 542Z" fill="#00101c" stroke="#00101c"></path><path d="M341 652L436 701L455 646Z" fill="#1b2a36" stroke="#1b2a36"></path><path d="M291 440L290 523L338 426Z" fill="#344652" stroke="#344652"></path><path d="M341 652L447 554L339 542Z" fill="#88a2ae" stroke="#88a2ae"></path><path d="M455 646L522 739L525 607Z" fill="#344652" stroke="#344652"></path><path d="M260 352L291 440L338 426Z" fill="#415460" stroke="#415460"></path><path d="M519 268L459 282L549 355Z" fill="#344652" stroke="#344652"></path><path d="M290 611L341 652L339 542Z" fill="#5c727e" stroke="#5c727e"></path><path d="M634 265L519 268L549 355Z" fill="#273843" stroke="#273843"></path><path d="M290 523L290 611L339 542Z" fill="#415460" stroke="#415460"></path><path d="M741 539L622 473L621 537Z" fill="#6b828e" stroke="#6b828e"></path><path d="M436 701L522 739L455 646Z" fill="#415460" stroke="#415460"></path><path d="M626 618L741 539L621 537Z" fill="#00101c" stroke="#00101c"></path><path d="M724 641L741 539L626 618Z" fill="#415460" stroke="#415460"></path><path d="M737 466L708 366L622 473Z" fill="#4f636f" stroke="#4f636f"></path><path d="M653 353L634 265L549 355Z" fill="#88a2ae" stroke="#88a2ae"></path><path d="M459 282L363 289L376 348Z" fill="#4f636f" stroke="#4f636f"></path><path d="M376 348L260 352L338 426Z" fill="#79929e" stroke="#79929e"></path><path d="M369 178L363 289L459 282Z" fill="#344652" stroke="#344652"></path><path d="M522 739L621 713L525 607Z" fill="#415460" stroke="#415460"></path><path d="M708 281L634 265L653 353Z" fill="#4f636f" stroke="#4f636f"></path><path d="M621 713L724 641L626 618Z" fill="#5c727e" stroke="#5c727e"></path><path d="M283 742L376 735L341 652Z" fill="#4f636f" stroke="#4f636f"></path><path d="M341 652L376 735L436 701Z" fill="#1b2a36" stroke="#1b2a36"></path><path d="M436 701L470 786L522 739Z" fill="#273843" stroke="#273843"></path><path d="M363 289L260 352L376 348Z" fill="#5c727e" stroke="#5c727e"></path><path d="M291 440L172 522L290 523Z" fill="#5c727e" stroke="#5c727e"></path><path d="M290 523L188 607L290 611Z" fill="#5c727e" stroke="#5c727e"></path><path d="M376 735L470 786L436 701Z" fill="#00101c" stroke="#00101c"></path><path d="M522 739L623 796L621 713Z" fill="#79929e" stroke="#79929e"></path><path d="M812 361L708 281L708 366Z" fill="#00101c" stroke="#00101c"></path><path d="M708 366L708 281L653 353Z" fill="#79929e" stroke="#79929e"></path><path d="M741 539L800 458L737 466Z" fill="#88a2ae" stroke="#88a2ae"></path><path d="M737 466L800 458L708 366Z" fill="#415460" stroke="#415460"></path><path d="M821 559L800 458L741 539Z" fill="#5c727e" stroke="#5c727e"></path><path d="M470 786L531 801L522 739Z" fill="#6b828e" stroke="#6b828e"></path><path d="M621 713L730 706L724 641Z" fill="#79929e" stroke="#79929e"></path><path d="M707 815L730 706L621 713Z" fill="#79929e" stroke="#79929e"></path><path d="M724 641L821 559L741 539Z" fill="#1b2a36" stroke="#1b2a36"></path><path d="M624 166L516 177L519 268Z" fill="#5c727e" stroke="#5c727e"></path><path d="M519 268L460 169L459 282Z" fill="#00101c" stroke="#00101c"></path><path d="M363 289L269 254L260 352Z" fill="#88a2ae" stroke="#88a2ae"></path><path d="M624 166L519 268L634 265Z" fill="#00101c" stroke="#00101c"></path><path d="M531 801L623 796L522 739Z" fill="#6b828e" stroke="#6b828e"></path><path d="M832 623L821 559L724 641Z" fill="#4f636f" stroke="#4f636f"></path><path d="M290 611L283 742L341 652Z" fill="#1b2a36" stroke="#1b2a36"></path><path d="M376 735L354 809L470 786Z" fill="#5c727e" stroke="#5c727e"></path><path d="M463 900L534 900L531 801Z" fill="#344652" stroke="#344652"></path><path d="M189 707L283 742L290 611Z" fill="#79929e" stroke="#79929e"></path><path d="M156 432L172 522L291 440Z" fill="#1b2a36" stroke="#1b2a36"></path><path d="M516 177L460 169L519 268Z" fill="#00101c" stroke="#00101c"></path><path d="M172 522L188 607L290 523Z" fill="#79929e" stroke="#79929e"></path><path d="M369 178L269 254L363 289Z" fill="#344652" stroke="#344652"></path><path d="M260 352L156 432L291 440Z" fill="#1b2a36" stroke="#1b2a36"></path><path d="M800 458L812 361L708 366Z" fill="#0f1d29" stroke="#0f1d29"></path><path d="M900 441L812 361L800 458Z" fill="#00101c" stroke="#00101c"></path><path d="M460 169L369 178L459 282Z" fill="#0f1d29" stroke="#0f1d29"></path><path d="M283 742L354 809L376 735Z" fill="#5c727e" stroke="#5c727e"></path><path d="M167 349L156 432L260 352Z" fill="#415460" stroke="#415460"></path><path d="M715 160L634 265L708 281Z" fill="#5c727e" stroke="#5c727e"></path><path d="M715 160L624 166L634 265Z" fill="#1b2a36" stroke="#1b2a36"></path><path d="M516 177L438 102L460 169Z" fill="#00101c" stroke="#00101c"></path><path d="M788 743L832 623L730 706Z" fill="#0f1d29" stroke="#0f1d29"></path><path d="M730 706L832 623L724 641Z" fill="#273843" stroke="#273843"></path><path d="M821 559L900 526L800 458Z" fill="#344652" stroke="#344652"></path><path d="M175 287L167 349L260 352Z" fill="#6b828e" stroke="#6b828e"></path><path d="M161 805L292 800L283 742Z" fill="#00101c" stroke="#00101c"></path><path d="M283 742L292 800L354 809Z" fill="#79929e" stroke="#79929e"></path><path d="M188 607L189 707L290 611Z" fill="#00101c" stroke="#00101c"></path><path d="M82 648L189 707L188 607Z" fill="#273843" stroke="#273843"></path><path d="M82 546L188 607L172 522Z" fill="#0f1d29" stroke="#0f1d29"></path><path d="M707 815L788 743L730 706Z" fill="#415460" stroke="#415460"></path><path d="M652 900L707 815L623 796Z" fill="#1b2a36" stroke="#1b2a36"></path><path d="M623 796L707 815L621 713Z" fill="#1b2a36" stroke="#1b2a36"></path><path d="M534 900L623 796L531 801Z" fill="#344652" stroke="#344652"></path><path d="M192 201L175 287L269 254Z" fill="#6b828e" stroke="#6b828e"></path><path d="M269 254L175 287L260 352Z" fill="#6b828e" stroke="#6b828e"></path><path d="M102 336L94 432L156 432Z" fill="#5c727e" stroke="#5c727e"></path><path d="M368 96L267 177L369 178Z" fill="#88a2ae" stroke="#88a2ae"></path><path d="M369 178L267 177L269 254Z" fill="#1b2a36" stroke="#1b2a36"></path><path d="M562 81L438 102L516 177Z" fill="#6b828e" stroke="#6b828e"></path><path d="M460 169L438 102L369 178Z" fill="#415460" stroke="#415460"></path><path d="M795 201L715 160L708 281Z" fill="#4f636f" stroke="#4f636f"></path><path d="M624 166L562 81L516 177Z" fill="#6b828e" stroke="#6b828e"></path><path d="M900 611L821 559L832 623Z" fill="#88a2ae" stroke="#88a2ae"></path><path d="M900 611L900 526L821 559Z" fill="#5c727e" stroke="#5c727e"></path><path d="M812 361L832 262L708 281Z" fill="#344652" stroke="#344652"></path><path d="M900 526L900 441L800 458Z" fill="#4f636f" stroke="#4f636f"></path><path d="M463 900L470 786L354 809Z" fill="#273843" stroke="#273843"></path><path d="M463 900L531 801L470 786Z" fill="#415460" stroke="#415460"></path><path d="M375 900L463 900L354 809Z" fill="#5c727e" stroke="#5c727e"></path><path d="M900 343L832 262L812 361Z" fill="#5c727e" stroke="#5c727e"></path><path d="M102 336L156 432L167 349Z" fill="#0f1d29" stroke="#0f1d29"></path><path d="M156 432L94 432L172 522Z" fill="#6b828e" stroke="#6b828e"></path><path d="M900 715L900 611L832 623Z" fill="#415460" stroke="#415460"></path><path d="M832 262L795 201L708 281Z" fill="#273843" stroke="#273843"></path><path d="M632 76L624 166L709 105Z" fill="#273843" stroke="#273843"></path><path d="M632 76L562 81L624 166Z" fill="#6b828e" stroke="#6b828e"></path><path d="M94 432L82 546L172 522Z" fill="#79929e" stroke="#79929e"></path><path d="M452 0L368 96L438 102Z" fill="#415460" stroke="#415460"></path><path d="M438 102L368 96L369 178Z" fill="#415460" stroke="#415460"></path><path d="M256 900L375 900L354 809Z" fill="#273843" stroke="#273843"></path><path d="M256 900L354 809L292 800Z" fill="#4f636f" stroke="#4f636f"></path><path d="M267 177L192 201L269 254Z" fill="#00101c" stroke="#00101c"></path><path d="M175 287L102 336L167 349Z" fill="#415460" stroke="#415460"></path><path d="M192 82L192 201L267 177Z" fill="#79929e" stroke="#79929e"></path><path d="M99 287L102 336L175 287Z" fill="#00101c" stroke="#00101c"></path><path d="M94 432L0 472L82 546Z" fill="#00101c" stroke="#00101c"></path><path d="M832 262L900 165L795 201Z" fill="#6b828e" stroke="#6b828e"></path><path d="M900 441L900 343L812 361Z" fill="#4f636f" stroke="#4f636f"></path><path d="M707 815L797 807L788 743Z" fill="#4f636f" stroke="#4f636f"></path><path d="M788 743L900 715L832 623Z" fill="#88a2ae" stroke="#88a2ae"></path><path d="M729 900L797 807L707 815Z" fill="#415460" stroke="#415460"></path><path d="M534 900L652 900L623 796Z" fill="#273843" stroke="#273843"></path><path d="M709 105L624 166L715 160Z" fill="#88a2ae" stroke="#88a2ae"></path><path d="M802 105L709 105L715 160Z" fill="#00101c" stroke="#00101c"></path><path d="M82 546L82 648L188 607Z" fill="#344652" stroke="#344652"></path><path d="M189 707L161 805L283 742Z" fill="#79929e" stroke="#79929e"></path><path d="M192 201L99 287L175 287Z" fill="#344652" stroke="#344652"></path><path d="M0 357L0 472L94 432Z" fill="#273843" stroke="#273843"></path><path d="M900 786L900 715L788 743Z" fill="#344652" stroke="#344652"></path><path d="M74 714L161 805L189 707Z" fill="#79929e" stroke="#79929e"></path><path d="M652 900L729 900L707 815Z" fill="#0f1d29" stroke="#0f1d29"></path><path d="M797 807L900 786L788 743Z" fill="#344652" stroke="#344652"></path><path d="M900 343L900 257L832 262Z" fill="#415460" stroke="#415460"></path><path d="M795 201L802 105L715 160Z" fill="#88a2ae" stroke="#88a2ae"></path><path d="M161 805L256 900L292 800Z" fill="#0f1d29" stroke="#0f1d29"></path><path d="M368 96L269 80L267 177Z" fill="#273843" stroke="#273843"></path><path d="M192 201L95 185L99 287Z" fill="#00101c" stroke="#00101c"></path><path d="M350 0L269 80L368 96Z" fill="#273843" stroke="#273843"></path><path d="M452 0L438 102L562 81Z" fill="#6b828e" stroke="#6b828e"></path><path d="M0 620L74 714L82 648Z" fill="#79929e" stroke="#79929e"></path><path d="M82 648L74 714L189 707Z" fill="#79929e" stroke="#79929e"></path><path d="M714 0L650 0L632 76Z" fill="#415460" stroke="#415460"></path><path d="M900 165L802 105L795 201Z" fill="#0f1d29" stroke="#0f1d29"></path><path d="M900 900L900 786L797 807Z" fill="#79929e" stroke="#79929e"></path><path d="M650 0L542 0L632 76Z" fill="#6b828e" stroke="#6b828e"></path><path d="M632 76L542 0L562 81Z" fill="#415460" stroke="#415460"></path><path d="M542 0L452 0L562 81Z" fill="#88a2ae" stroke="#88a2ae"></path><path d="M0 357L94 432L102 336Z" fill="#6b828e" stroke="#6b828e"></path><path d="M82 546L0 620L82 648Z" fill="#273843" stroke="#273843"></path><path d="M0 472L0 520L82 546Z" fill="#88a2ae" stroke="#88a2ae"></path><path d="M74 714L103 810L161 805Z" fill="#00101c" stroke="#00101c"></path><path d="M161 805L188 900L256 900Z" fill="#6b828e" stroke="#6b828e"></path><path d="M0 791L103 810L74 714Z" fill="#79929e" stroke="#79929e"></path><path d="M192 82L95 185L192 201Z" fill="#5c727e" stroke="#5c727e"></path><path d="M99 287L0 357L102 336Z" fill="#0f1d29" stroke="#0f1d29"></path><path d="M98 900L188 900L161 805Z" fill="#88a2ae" stroke="#88a2ae"></path><path d="M729 900L812 900L797 807Z" fill="#273843" stroke="#273843"></path><path d="M0 520L0 620L82 546Z" fill="#344652" stroke="#344652"></path><path d="M284 0L192 82L269 80Z" fill="#5c727e" stroke="#5c727e"></path><path d="M269 80L192 82L267 177Z" fill="#0f1d29" stroke="#0f1d29"></path><path d="M452 0L350 0L368 96Z" fill="#4f636f" stroke="#4f636f"></path><path d="M714 0L632 76L709 105Z" fill="#4f636f" stroke="#4f636f"></path><path d="M0 260L0 357L99 287Z" fill="#79929e" stroke="#79929e"></path><path d="M900 257L900 165L832 262Z" fill="#0f1d29" stroke="#0f1d29"></path><path d="M802 105L714 0L709 105Z" fill="#5c727e" stroke="#5c727e"></path><path d="M802 0L714 0L802 105Z" fill="#1b2a36" stroke="#1b2a36"></path><path d="M350 0L284 0L269 80Z" fill="#415460" stroke="#415460"></path><path d="M95 185L0 260L99 287Z" fill="#5c727e" stroke="#5c727e"></path><path d="M0 165L0 260L95 185Z" fill="#79929e" stroke="#79929e"></path><path d="M0 620L0 734L74 714Z" fill="#344652" stroke="#344652"></path><path d="M103 810L98 900L161 805Z" fill="#00101c" stroke="#00101c"></path><path d="M900 165L900 103L802 105Z" fill="#00101c" stroke="#00101c"></path><path d="M812 900L900 900L797 807Z" fill="#415460" stroke="#415460"></path><path d="M0 900L98 900L103 810Z" fill="#1b2a36" stroke="#1b2a36"></path><path d="M0 734L0 791L74 714Z" fill="#5c727e" stroke="#5c727e"></path><path d="M900 103L802 0L802 105Z" fill="#6b828e" stroke="#6b828e"></path><path d="M163 0L66 99L192 82Z" fill="#00101c" stroke="#00101c"></path><path d="M192 82L66 99L95 185Z" fill="#273843" stroke="#273843"></path><path d="M66 99L0 165L95 185Z" fill="#1b2a36" stroke="#1b2a36"></path><path d="M284 0L163 0L192 82Z" fill="#273843" stroke="#273843"></path><path d="M66 99L0 75L0 165Z" fill="#344652" stroke="#344652"></path><path d="M900 103L900 0L802 0Z" fill="#00101c" stroke="#00101c"></path><path d="M0 791L0 900L103 810Z" fill="#415460" stroke="#415460"></path><path d="M163 0L78 0L66 99Z" fill="#344652" stroke="#344652"></path><path d="M78 0L0 75L66 99Z" fill="#415460" stroke="#415460"></path><path d="M78 0L0 0L0 75Z" fill="#79929e" stroke="#79929e"></path></g></svg>