<svg id="visual" viewBox="0 0 900 900" width="900" height="900" xmlns="http://www.w3.org/2000/svg" xmlns:xlink="http://www.w3.org/1999/xlink" version="1.1"><rect width="900" height="900" fill="#a9a9a9"></rect><g><g transform="translate(484 339)"><path d="M0 -87.5L75.8 -43.8L75.8 43.8L0 87.5L-75.8 43.8L-75.8 -43.8Z" fill="none" stroke="#000000" stroke-width="2"></path></g><g transform="translate(233 176)"><path d="M0 -78L67.5 -39L67.5 39L0 78L-67.5 39L-67.5 -39Z" fill="none" stroke="#000000" stroke-width="2"></path></g><g transform="translate(237 429)"><path d="M0 -78L67.5 -39L67.5 39L0 78L-67.5 39L-67.5 -39Z" stroke="#000000" fill="none" stroke-width="2"></path></g><g transform="translate(590 94)"><path d="M0 -81L70.1 -40.5L70.1 40.5L0 81L-70.1 40.5L-70.1 -40.5Z" stroke="#000000" fill="none" stroke-width="2"></path></g><g transform="translate(832 277)"><path d="M0 -83L71.9 -41.5L71.9 41.5L0 83L-71.9 41.5L-71.9 -41.5Z" stroke="#000000" fill="none" stroke-width="2"></path></g><g transform="translate(5 838)"><path d="M0 -86L74.5 -43L74.5 43L0 86L-74.5 43L-74.5 -43Z" stroke="#000000" fill="none" stroke-width="2"></path></g><g transform="translate(652 811)"><path d="M0 -81L70.1 -40.5L70.1 40.5L0 81L-70.1 40.5L-70.1 -40.5Z" stroke="#000000" fill="none" stroke-width="2"></path></g><g transform="translate(125 666)"><path d="M0 -84L72.7 -42L72.7 42L0 84L-72.7 42L-72.7 -42Z" stroke="#000000" fill="none" stroke-width="2"></path></g><g transform="translate(780 681)"><path d="M0 -78L67.5 -39L67.5 39L0 78L-67.5 39L-67.5 -39Z" stroke="#000000" fill="none" stroke-width="2"></path></g><g transform="translate(894 33)"><path d="M0 -79L68.4 -39.5L68.4 39.5L0 79L-68.4 39.5L-68.4 -39.5Z" stroke="#000000" fill="none" stroke-width="2"></path></g><g transform="translate(72 318)"><path d="M0 -79L68.4 -39.5L68.4 39.5L0 79L-68.4 39.5L-68.4 -39.5Z" stroke="#000000" fill="none" stroke-width="2"></path></g><g transform="translate(532 569)"><path d="M0 -77L66.7 -38.5L66.7 38.5L0 77L-66.7 38.5L-66.7 -38.5Z" stroke="#000000" fill="none" stroke-width="2"></path></g><g transform="translate(358 620)"><path d="M0 -79L68.4 -39.5L68.4 39.5L0 79L-68.4 39.5L-68.4 -39.5Z" stroke="#000000" fill="none" stroke-width="2"></path></g><g transform="translate(402 82)"><path d="M0 -82L71 -41L71 41L0 82L-71 41L-71 -41Z" stroke="#000000" fill="none" stroke-width="2"></path></g><g transform="translate(51 16)"><path d="M0 -85L73.6 -42.5L73.6 42.5L0 85L-73.6 42.5L-73.6 -42.5Z" stroke="#000000" fill="none" stroke-width="2"></path></g><g transform="translate(352 848)"><path d="M0 -81L70.1 -40.5L70.1 40.5L0 81L-70.1 40.5L-70.1 -40.5Z" stroke="#000000" fill="none" stroke-width="2"></path></g><g transform="translate(842 484)"><path d="M0 -84L72.7 -42L72.7 42L0 84L-72.7 42L-72.7 -42Z" stroke="#000000" fill="none" stroke-width="2"></path></g><g transform="translate(18 497)"><path d="M0 -84L72.7 -42L72.7 42L0 84L-72.7 42L-72.7 -42Z" stroke="#000000" fill="none" stroke-width="2"></path></g><g transform="translate(828 870)"><path d="M0 -81L70.1 -40.5L70.1 40.5L0 81L-70.1 40.5L-70.1 -40.5Z" stroke="#000000" fill="none" stroke-width="2"></path></g><g transform="translate(668 342)"><path d="M0 -77L66.7 -38.5L66.7 38.5L0 77L-66.7 38.5L-66.7 -38.5Z" stroke="#000000" fill="none" stroke-width="2"></path></g></g></svg>